<?xml version="1.0" encoding="UTF-8"?>
<svg id="Layer_1" xmlns="http://www.w3.org/2000/svg" version="1.1" viewBox="0 0 230.8 85.99">
  <!-- Generator: Adobe Illustrator 29.8.4, SVG Export Plug-In . SVG Version: 2.1.1 Build 6)  -->
  <defs>
    <style>
      .st0 {
        stroke-width: .45px;
      }

      .st0, .st1, .st2 {
        fill: #fff;
      }

      .st0, .st2 {
        stroke: #fff;
        stroke-miterlimit: 10;
      }

      .st2 {
        stroke-width: .1px;
      }
    </style>
  </defs>
  <rect class="st1" x="42.1" width="34.7" height="85.99"/>
  <path d="M11.82,43.47c0-16.61,13.47-30.08,30.08-30.08.06,0,.13,0,.19,0V0H0v85.99h42.1v-12.44c-.06,0-.13,0-.19,0-16.61,0-30.08-13.47-30.08-30.08Z"/>
  <path d="M71.99,43.47c0-16.55-13.36-29.97-29.89-30.08v60.16c16.53-.1,29.89-13.53,29.89-30.08Z"/>
  <g>
    <path class="st0" d="M93.44,43.81c-1.67,0-3.09-.28-4.27-.83-1.17-.55-2.07-1.31-2.7-2.28-.62-.97-.94-2.07-.94-3.3h2.7c0,.61.16,1.21.48,1.82.32.61.86,1.11,1.62,1.51s1.79.61,3.1.61c1.21,0,2.2-.18,2.97-.54.77-.36,1.34-.83,1.71-1.4s.55-1.21.55-1.89c0-.83-.36-1.51-1.07-2.05-.72-.54-1.76-.88-3.14-1l-2.23-.19c-1.78-.15-3.2-.7-4.27-1.65-1.06-.95-1.6-2.21-1.6-3.77,0-1.23.3-2.3.89-3.22.6-.92,1.43-1.64,2.49-2.16s2.3-.78,3.72-.78,2.62.26,3.69.77c1.06.51,1.89,1.23,2.49,2.16.6.93.89,2.03.89,3.32h-2.7c0-.64-.15-1.25-.45-1.82s-.78-1.04-1.42-1.4c-.64-.37-1.48-.55-2.5-.55s-1.81.17-2.46.52c-.65.35-1.14.8-1.46,1.36-.32.56-.48,1.16-.48,1.8,0,.73.28,1.39.85,1.95.57.57,1.41.9,2.53.99l2.23.19c1.38.11,2.56.4,3.56.87,1,.47,1.77,1.09,2.31,1.87.54.78.81,1.71.81,2.79,0,1.23-.33,2.32-.99,3.27-.66.95-1.59,1.7-2.78,2.23-1.19.53-2.58.8-4.16.8Z"/>
    <path class="st0" d="M114.88,43.81c-1.8,0-3.35-.32-4.65-.96-1.3-.64-2.38-1.49-3.22-2.53s-1.47-2.17-1.89-3.36c-.41-1.19-.62-2.34-.62-3.44v-.61c0-1.19.21-2.39.63-3.61.42-1.21,1.06-2.32,1.93-3.32.86-1,1.94-1.8,3.23-2.41s2.82-.91,4.58-.91,3.29.3,4.58.91,2.37,1.41,3.23,2.41c.86,1,1.5,2.11,1.93,3.32s.63,2.41.63,3.61v.61c0,1.1-.21,2.25-.62,3.44-.41,1.19-1.04,2.31-1.89,3.36s-1.92,1.89-3.22,2.53c-1.3.64-2.85.96-4.65.96ZM114.88,41.34c1.17,0,2.23-.22,3.18-.66.94-.44,1.75-1.04,2.41-1.8.66-.76,1.17-1.62,1.51-2.59s.52-1.98.52-3.04c0-1.12-.17-2.17-.52-3.14s-.85-1.83-1.51-2.57c-.66-.74-1.46-1.33-2.41-1.75-.95-.42-2-.63-3.18-.63s-2.23.21-3.18.63c-.95.42-1.75,1-2.41,1.75-.66.74-1.17,1.6-1.51,2.57s-.52,2.02-.52,3.14.17,2.08.52,3.04.85,1.83,1.51,2.59c.66.76,1.46,1.36,2.41,1.8s2,.66,3.18.66Z"/>
    <path class="st0" d="M129.68,43.32v-20.2h2.7v20.2h-2.7ZM131.36,36.05v-2.39h5.39c.84,0,1.57-.17,2.17-.52.61-.35,1.07-.83,1.4-1.44.33-.61.5-1.32.5-2.11s-.17-1.49-.5-2.11c-.33-.61-.8-1.1-1.4-1.46-.61-.36-1.33-.54-2.17-.54h-5.39v-2.37h4.9c1.47,0,2.75.22,3.85.66,1.1.44,1.95,1.12,2.56,2.04s.91,2.1.91,3.55v.44c0,1.45-.31,2.63-.92,3.55-.62.92-1.47,1.6-2.56,2.04s-2.37.66-3.84.66h-4.9ZM142.1,43.32l-6.66-8.94h3.17l6.77,8.94h-3.28Z"/>
    <path class="st0" d="M146.31,25.65v-2.42h14.92v2.42h-14.92ZM152.42,43.32v-18.22h2.7v18.22h-2.7Z"/>
    <path class="st0" d="M168.93,25.65v-2.42h14.92v2.42h-14.92ZM175.04,43.32v-18.22h2.7v18.22h-2.7Z"/>
    <path class="st0" d="M187.48,43.32v-20.2h2.7v20.2h-2.7ZM189.16,36.05v-2.39h5.39c.84,0,1.57-.17,2.17-.52.61-.35,1.07-.83,1.4-1.44.33-.61.5-1.32.5-2.11s-.17-1.49-.5-2.11c-.33-.61-.8-1.1-1.4-1.46-.61-.36-1.33-.54-2.17-.54h-5.39v-2.37h4.9c1.47,0,2.75.22,3.85.66,1.1.44,1.95,1.12,2.56,2.04s.91,2.1.91,3.55v.44c0,1.45-.31,2.63-.92,3.55-.62.92-1.47,1.6-2.56,2.04s-2.37.66-3.84.66h-4.9ZM199.9,43.32l-6.66-8.94h3.17l6.77,8.94h-3.28Z"/>
    <path class="st0" d="M206.8,43.32v-20.09h2.7v20.09h-2.7Z"/>
    <path class="st0" d="M215.39,43.32v-20.2h2.7v20.2h-2.7ZM217.54,36.33v-2.37h4.49c.95,0,1.74-.19,2.37-.56s1.1-.89,1.42-1.53c.32-.64.48-1.36.48-2.15s-.16-1.53-.48-2.17c-.32-.64-.79-1.15-1.42-1.51-.62-.37-1.41-.55-2.37-.55h-4.49v-2.37h3.99c1.65,0,3.03.26,4.14.78s1.95,1.26,2.52,2.22c.57.95.85,2.08.85,3.39v.44c0,1.28-.28,2.41-.85,3.37-.57.96-1.41,1.71-2.52,2.23s-2.49.78-4.14.78h-3.99Z"/>
  </g>
  <g>
    <path class="st2" d="M93.8,66.43c-1.53,0-2.84-.27-3.92-.8-1.08-.54-1.95-1.23-2.61-2.09-.66-.86-1.14-1.79-1.45-2.79s-.46-1.97-.46-2.91v-.51c0-1.01.16-2.02.47-3.04.31-1.01.8-1.93,1.46-2.76.66-.83,1.52-1.49,2.58-2,1.06-.51,2.32-.76,3.79-.76s2.79.26,3.86.78c1.07.52,1.92,1.25,2.55,2.18.63.94,1.01,2.04,1.15,3.31h-2.3c-.12-.95-.43-1.74-.92-2.36-.49-.62-1.11-1.08-1.85-1.39-.74-.31-1.58-.46-2.5-.46-1,0-1.87.17-2.62.52-.75.35-1.38.83-1.87,1.45-.5.62-.87,1.34-1.13,2.15-.25.81-.38,1.69-.38,2.65s.13,1.76.38,2.58c.25.81.64,1.53,1.15,2.16s1.15,1.12,1.92,1.48,1.66.54,2.69.54c1.44,0,2.65-.36,3.63-1.08.98-.72,1.58-1.76,1.79-3.13h2.3c-.15,1.15-.54,2.2-1.16,3.15-.62.95-1.48,1.71-2.58,2.28-1.1.57-2.43.85-3.99.85Z"/>
    <path class="st2" d="M108.73,66.39c-1.46,0-2.58-.48-3.36-1.43-.78-.95-1.17-2.32-1.17-4.12v-7.13h2.21v7.57c0,.97.26,1.72.78,2.27.52.54,1.23.82,2.12.82s1.67-.29,2.25-.88c.58-.59.87-1.4.87-2.43v-7.34h2.21v12.31h-1.75v-5.27h.28c0,1.21-.16,2.23-.48,3.07s-.8,1.47-1.44,1.91c-.64.44-1.45.66-2.43.66h-.09Z"/>
    <path class="st2" d="M122.94,66.39c-1.61,0-2.86-.34-3.74-1.04s-1.34-1.63-1.37-2.83h2.07c.03.48.27.92.72,1.35s1.22.63,2.31.63c.98,0,1.73-.2,2.25-.59.52-.39.78-.87.78-1.44,0-.51-.19-.9-.58-1.18-.38-.28-1-.47-1.86-.56l-1.33-.14c-1.17-.12-2.12-.47-2.85-1.05-.74-.57-1.1-1.38-1.1-2.43,0-.78.2-1.45.6-2.01.4-.56.95-.99,1.66-1.29.71-.3,1.52-.45,2.44-.45,1.38,0,2.5.31,3.36.92.86.61,1.3,1.53,1.33,2.74h-2.07c-.02-.49-.24-.91-.68-1.25-.44-.34-1.08-.52-1.94-.52s-1.51.18-1.96.53c-.44.35-.67.8-.67,1.33,0,.46.16.83.47,1.1.31.28.83.45,1.55.53l1.33.14c1.32.14,2.38.5,3.17,1.09.8.59,1.2,1.42,1.2,2.5,0,.77-.22,1.45-.66,2.04-.44.59-1.04,1.05-1.81,1.38-.77.33-1.65.5-2.65.5Z"/>
    <path class="st2" d="M136.51,66.43c-1.06,0-1.97-.18-2.75-.55-.77-.37-1.42-.86-1.92-1.48-.51-.62-.89-1.31-1.14-2.06-.25-.75-.38-1.5-.38-2.25v-.41c0-.78.13-1.55.38-2.3.25-.75.64-1.43,1.15-2.04.51-.61,1.15-1.09,1.92-1.46.77-.37,1.66-.55,2.69-.55s1.95.19,2.77.57c.82.38,1.48.92,1.98,1.62.5.7.78,1.52.84,2.47h-2.12c-.11-.77-.46-1.41-1.06-1.92s-1.4-.77-2.42-.77c-.87,0-1.6.2-2.18.6-.58.4-1.02.94-1.31,1.63s-.44,1.47-.44,2.35.15,1.61.44,2.31c.29.7.73,1.25,1.32,1.66.59.41,1.33.61,2.22.61.69,0,1.29-.12,1.79-.37s.91-.58,1.22-.99c.31-.41.49-.88.55-1.4h2.12c-.05.97-.33,1.8-.84,2.51-.51.71-1.19,1.25-2.02,1.64-.84.39-1.77.59-2.82.59Z"/>
    <path class="st2" d="M150.84,66.43c-1.07,0-2.02-.18-2.83-.55-.81-.37-1.5-.85-2.06-1.46-.56-.61-.98-1.28-1.27-2.04-.28-.75-.42-1.52-.42-2.3v-.41c0-.78.15-1.55.44-2.31.29-.76.72-1.44,1.29-2.05.57-.61,1.26-1.09,2.07-1.45.81-.36,1.74-.54,2.78-.54s1.97.18,2.78.54,1.5.84,2.07,1.45c.57.61,1,1.29,1.29,2.05.29.76.44,1.53.44,2.31v.41c0,.78-.14,1.55-.42,2.3-.28.75-.71,1.43-1.27,2.04-.56.61-1.25,1.09-2.06,1.46-.81.37-1.76.55-2.83.55ZM150.84,64.46c.92,0,1.71-.2,2.36-.61.65-.41,1.15-.95,1.5-1.64.34-.69.52-1.46.52-2.32s-.18-1.66-.53-2.35c-.35-.69-.86-1.23-1.51-1.63-.65-.4-1.43-.6-2.33-.6s-1.66.2-2.32.6c-.66.4-1.17.94-1.52,1.63s-.53,1.47-.53,2.35.17,1.63.52,2.32c.34.69.84,1.24,1.49,1.64.65.41,1.44.61,2.36.61Z"/>
  </g>
</svg>