<?xml version="1.0" encoding="UTF-8"?>
<svg id="Layer_1" xmlns="http://www.w3.org/2000/svg" version="1.1" viewBox="0 0 284.37 121.52">
  <!-- Generator: Adobe Illustrator 29.8.4, SVG Export Plug-In . SVG Version: 2.1.1 Build 6)  -->
  <defs>
    <style>
      .st0 {
        opacity: .42;
      }

      .st0, .st1 {
        fill: #fff;
      }
    </style>
  </defs>
  <rect class="st0" x="59.49" width="42.24" height="121.52"/>
  <g>
    <path d="M16.71,61.43c0-23.48,19.03-42.51,42.51-42.51.09,0,.18,0,.27,0V0H0v121.52h59.49v-17.59c-.09,0-.18,0-.27,0-23.48,0-42.51-19.03-42.51-42.51Z"/>
    <path d="M101.73,61.43c0-23.39-18.89-42.36-42.24-42.51v85.01c23.35-.15,42.24-19.12,42.24-42.51Z"/>
  </g>
  <g>
    <path class="st1" d="M120.87,62.31c-2.04,0-3.77-.33-5.19-.99-1.42-.66-2.5-1.57-3.23-2.72-.73-1.16-1.1-2.47-1.1-3.93h4.43c0,.62.17,1.22.51,1.8.34.58.89,1.06,1.64,1.42s1.74.54,2.95.54c1.13,0,2.06-.16,2.79-.48s1.28-.74,1.66-1.26c.37-.52.56-1.11.56-1.77,0-.81-.35-1.46-1.05-1.96s-1.79-.81-3.28-.94l-2.04-.19c-2.23-.19-4.01-.89-5.34-2.09-1.33-1.2-1.99-2.79-1.99-4.76,0-1.49.35-2.77,1.05-3.84.7-1.07,1.68-1.9,2.95-2.48,1.26-.58,2.74-.88,4.44-.88s3.29.31,4.57.92c1.28.62,2.27,1.48,2.96,2.6.69,1.12,1.04,2.43,1.04,3.93h-4.43c0-.62-.15-1.19-.45-1.74s-.75-.98-1.37-1.32c-.62-.34-1.39-.51-2.33-.51s-1.63.15-2.21.46c-.58.31-1.02.71-1.32,1.21-.3.5-.45,1.05-.45,1.64,0,.72.27,1.35.8,1.9s1.37.85,2.52.94l2.01.19c1.68.13,3.14.48,4.38,1.05,1.24.57,2.21,1.35,2.91,2.33s1.05,2.16,1.05,3.54c0,1.47-.38,2.76-1.15,3.87-.76,1.12-1.85,1.98-3.27,2.6-1.41.62-3.08.92-5.02.92Z"/>
    <path class="st1" d="M145.33,62.31c-2.1,0-3.92-.37-5.46-1.1-1.54-.73-2.81-1.7-3.82-2.91-1.01-1.21-1.76-2.51-2.25-3.9-.49-1.39-.73-2.73-.73-4.03v-.7c0-1.42.25-2.84.76-4.25.51-1.41,1.28-2.69,2.31-3.84,1.03-1.15,2.31-2.06,3.84-2.76,1.53-.69,3.31-1.04,5.35-1.04s3.83.35,5.37,1.04c1.54.69,2.82,1.61,3.85,2.76,1.03,1.15,1.8,2.43,2.31,3.84.51,1.41.76,2.83.76,4.25v.7c0,1.3-.25,2.64-.75,4.03-.5,1.39-1.25,2.69-2.26,3.9-1.01,1.21-2.28,2.18-3.82,2.91-1.54.73-3.36,1.1-5.46,1.1ZM145.33,58.11c1.19,0,2.26-.21,3.22-.64.96-.42,1.77-1.01,2.44-1.77s1.18-1.61,1.53-2.58.53-1.99.53-3.07c0-1.15-.18-2.21-.54-3.19-.36-.98-.88-1.83-1.54-2.56-.67-.73-1.48-1.3-2.42-1.7-.95-.4-2.01-.6-3.2-.6s-2.23.2-3.19.6c-.96.4-1.77.97-2.44,1.7-.67.73-1.18,1.59-1.53,2.56-.35.98-.53,2.04-.53,3.19,0,1.08.17,2.11.53,3.07s.86,1.83,1.53,2.58,1.48,1.34,2.44,1.77c.96.42,2.02.64,3.19.64Z"/>
    <path class="st1" d="M161.96,61.71v-23.41h4.52v23.41h-4.52ZM165.14,53.93v-3.66h5.92c.83,0,1.54-.17,2.15-.51s1.07-.81,1.4-1.42c.33-.61.49-1.31.49-2.12s-.17-1.51-.49-2.12c-.33-.6-.8-1.08-1.4-1.43-.61-.35-1.32-.53-2.15-.53h-5.92v-3.85h5.45c1.87,0,3.49.28,4.86.84,1.37.56,2.43,1.4,3.17,2.52.74,1.11,1.11,2.53,1.11,4.25v.51c0,1.7-.38,3.11-1.13,4.22-.75,1.11-1.81,1.94-3.17,2.48-1.36.54-2.97.81-4.84.81h-5.45ZM176.13,61.71l-7.1-10.1h5.06l7.36,10.1h-5.32Z"/>
    <path class="st1" d="M182.15,42.43v-3.98h17.97v3.98h-17.97ZM188.88,61.71v-19.91h4.52v19.91h-4.52Z"/>
    <path class="st1" d="M203.72,61.71v-23.41h4.52v23.41h-4.52ZM206.9,53.93v-3.66h5.92c.83,0,1.54-.17,2.15-.51s1.07-.81,1.4-1.42c.33-.61.49-1.31.49-2.12s-.17-1.51-.49-2.12c-.33-.6-.8-1.08-1.4-1.43-.61-.35-1.32-.53-2.15-.53h-5.92v-3.85h5.45c1.87,0,3.49.28,4.86.84,1.37.56,2.43,1.4,3.17,2.52.74,1.11,1.11,2.53,1.11,4.25v.51c0,1.7-.38,3.11-1.13,4.22-.75,1.11-1.81,1.94-3.17,2.48-1.36.54-2.97.81-4.84.81h-5.45ZM217.89,61.71l-7.1-10.1h5.06l7.36,10.1h-5.32Z"/>
    <path class="st1" d="M226.72,61.71v-23.25h4.52v23.25h-4.52Z"/>
    <path class="st1" d="M237.04,61.71v-23.41h4.52v23.41h-4.52ZM240.92,54.57v-3.92h4.52c.89,0,1.65-.18,2.28-.54.63-.36,1.11-.86,1.45-1.5s.51-1.36.51-2.17c0-.85-.17-1.59-.51-2.23-.34-.64-.82-1.13-1.45-1.48-.63-.35-1.39-.53-2.28-.53h-4.52v-3.92h4.14c1.95,0,3.62.32,4.99.96,1.37.64,2.42,1.54,3.14,2.72.72,1.18,1.08,2.59,1.08,4.22v.51c0,1.59-.36,2.98-1.08,4.17-.72,1.19-1.77,2.1-3.14,2.74-1.37.64-3.03.96-4.99.96h-4.14Z"/>
  </g>
  <g>
    <path class="st1" d="M121.34,87.49c-1.8,0-3.33-.31-4.6-.93-1.27-.62-2.3-1.44-3.1-2.46-.8-1.02-1.39-2.11-1.77-3.29-.38-1.18-.57-2.33-.57-3.44v-.59c0-1.22.19-2.43.58-3.62.39-1.19.98-2.27,1.78-3.24.8-.97,1.83-1.75,3.08-2.33,1.25-.58,2.73-.88,4.44-.88s3.34.32,4.67.97c1.33.65,2.39,1.55,3.19,2.7.79,1.15,1.27,2.5,1.43,4.05h-3.89c-.12-.9-.44-1.66-.93-2.27-.49-.61-1.12-1.08-1.89-1.4-.77-.32-1.62-.49-2.58-.49s-1.81.17-2.56.51c-.76.34-1.39.82-1.89,1.43-.5.61-.89,1.33-1.15,2.16-.26.83-.39,1.74-.39,2.73s.13,1.87.39,2.7.65,1.55,1.17,2.17c.52.62,1.17,1.1,1.93,1.44.77.34,1.65.51,2.66.51,1.48,0,2.72-.36,3.73-1.09,1.01-.73,1.62-1.75,1.84-3.06h3.89c-.18,1.4-.66,2.69-1.43,3.86s-1.84,2.11-3.19,2.81-2.96,1.05-4.83,1.05Z"/>
    <path class="st1" d="M138.73,87.44c-1.71,0-3.02-.55-3.94-1.66-.92-1.11-1.38-2.77-1.38-4.98v-8.51h3.75v8.83c0,.9.25,1.62.76,2.15.5.53,1.19.8,2.05.8s1.57-.28,2.12-.84.82-1.31.82-2.27v-8.67h3.75v14.69h-2.97v-6.24h.3c0,1.49-.19,2.74-.58,3.73-.39.99-.95,1.73-1.7,2.23-.75.49-1.69.74-2.82.74h-.16Z"/>
    <path class="st1" d="M156.31,87.44c-2.02,0-3.6-.43-4.74-1.28-1.14-.85-1.75-2.04-1.82-3.55h3.4c.05.5.33.96.84,1.38s1.3.62,2.38.62c.88,0,1.59-.16,2.13-.49.54-.32.81-.76.81-1.32,0-.47-.2-.85-.61-1.13-.41-.29-1.1-.49-2.09-.59l-1.27-.13c-1.66-.16-2.93-.62-3.81-1.39-.88-.76-1.32-1.78-1.32-3.04,0-1.01.25-1.85.76-2.54.5-.68,1.2-1.2,2.09-1.55.89-.35,1.92-.53,3.09-.53,1.8,0,3.26.4,4.37,1.19,1.12.79,1.7,1.96,1.75,3.51h-3.38c-.05-.52-.31-.96-.77-1.32s-1.13-.54-2.01-.54c-.79,0-1.4.15-1.84.46-.43.31-.65.7-.65,1.19s.17.83.53,1.08c.35.25.92.42,1.71.51l1.3.13c1.73.18,3.08.66,4.06,1.43.98.77,1.47,1.82,1.47,3.13,0,.97-.27,1.82-.8,2.54-.53.72-1.27,1.27-2.23,1.66-.95.39-2.08.58-3.38.58Z"/>
    <path class="st1" d="M172.29,87.49c-1.26,0-2.36-.21-3.29-.63-.94-.42-1.71-1-2.32-1.73-.61-.73-1.07-1.54-1.38-2.44-.31-.9-.46-1.82-.46-2.75v-.51c0-.99.16-1.94.47-2.85.31-.91.78-1.72,1.4-2.43.62-.71,1.4-1.28,2.32-1.7s2-.63,3.23-.63c1.3,0,2.45.25,3.46.74s1.81,1.18,2.42,2.07c.6.88.94,1.91,1.01,3.08h-3.67c-.09-.74-.41-1.36-.95-1.88-.54-.51-1.3-.77-2.27-.77-.81,0-1.49.2-2.04.59-.55.4-.96.94-1.23,1.63-.27.69-.41,1.49-.41,2.39s.13,1.65.39,2.35c.26.7.67,1.25,1.21,1.65.55.4,1.25.59,2.09.59.67,0,1.23-.12,1.7-.35.47-.23.84-.56,1.12-.97.28-.41.45-.88.5-1.4h3.67c-.07,1.19-.42,2.23-1.04,3.12-.62.89-1.44,1.59-2.46,2.09s-2.18.76-3.5.76Z"/>
    <path class="st1" d="M189.33,87.49c-1.3,0-2.44-.21-3.43-.62-.99-.41-1.83-.97-2.51-1.67-.68-.7-1.2-1.5-1.55-2.4-.35-.9-.53-1.85-.53-2.83v-.57c0-1.01.18-1.97.54-2.88.36-.91.89-1.72,1.58-2.43s1.54-1.27,2.54-1.67,2.12-.61,3.36-.61,2.36.2,3.35.61c.99.41,1.83.96,2.52,1.67.69.71,1.22,1.52,1.58,2.43.36.91.54,1.87.54,2.88v.57c0,.99-.18,1.93-.53,2.83-.35.9-.87,1.7-1.55,2.4-.68.7-1.52,1.26-2.51,1.67-.99.41-2.12.62-3.4.62ZM189.33,84.28c.9,0,1.67-.2,2.29-.61s1.11-.95,1.45-1.65c.33-.69.5-1.48.5-2.36s-.17-1.67-.51-2.38c-.34-.7-.83-1.25-1.46-1.66-.63-.41-1.39-.61-2.27-.61s-1.64.2-2.28.61-1.13.96-1.47,1.66c-.34.7-.51,1.5-.51,2.38s.17,1.67.5,2.36c.33.69.81,1.24,1.45,1.65.63.41,1.4.61,2.32.61Z"/>
  </g>
</svg>